<svg width="256" height="256" viewBox="0 0 256 256" fill="none" xmlns="http://www.w3.org/2000/svg">
<rect width="256" height="256" fill="#774EE0"/>
<path d="M38.7006 72.6H65.176C74.1101 72.6 80.8107 74.997 85.2777 79.7909C89.7448 84.5848 91.9783 91.6122 91.9783 100.873V112.15C91.9783 121.411 89.7448 128.438 85.2777 133.232C80.8107 138.026 74.1101 140.423 65.176 140.423H56.6777V187H38.7006V72.6ZM65.176 124.08C68.1177 124.08 70.2968 123.263 71.7131 121.629C73.2385 119.994 74.0011 117.216 74.0011 113.294V99.7292C74.0011 95.8069 73.2385 93.0286 71.7131 91.3943C70.2968 89.76 68.1177 88.9429 65.176 88.9429H56.6777V124.08H65.176ZM127.073 188.634C118.466 188.634 111.874 186.183 107.298 181.28C102.831 176.377 100.598 169.459 100.598 160.525V99.0754C100.598 90.1413 102.831 83.2229 107.298 78.32C111.874 73.4172 118.466 70.9657 127.073 70.9657C135.681 70.9657 142.218 73.4172 146.685 78.32C151.261 83.2229 153.549 90.1413 153.549 99.0754V111.169H136.552V97.9314C136.552 90.8495 133.556 87.3086 127.564 87.3086C121.571 87.3086 118.575 90.8495 118.575 97.9314V161.832C118.575 168.805 121.571 172.291 127.564 172.291C133.556 172.291 136.552 168.805 136.552 161.832V144.345H153.549V160.525C153.549 169.459 151.261 176.377 146.685 181.28C142.218 186.183 135.681 188.634 127.073 188.634ZM178.196 72.6H202.547L221.177 187H203.2L199.932 164.283V164.61H179.503L176.235 187H159.565L178.196 72.6ZM197.807 149.085L189.799 92.5383H189.472L181.628 149.085H197.807Z" fill="white"/>
</svg>
